<svg width="450" height="440" viewBox="0 0 450 440" fill="none" xmlns="http://www.w3.org/2000/svg">
<path fill-rule="evenodd" clip-rule="evenodd" d="M281.372 9.15117C272.497 -1.42573 256.728 -2.80537 246.151 6.06963C235.574 14.9449 234.195 30.7137 243.07 41.2906L372.047 195H25C11.1929 195 0 206.193 0 220C0 233.807 11.1929 245 25 245H372.008L243.07 398.662C234.195 409.239 235.574 425.008 246.151 433.883C256.728 442.758 272.497 441.378 281.372 430.802L442.069 239.29C443.173 237.975 444.118 236.579 444.906 235.126C448.103 230.926 450 225.685 450 220C450 214.368 448.138 209.171 444.995 204.991C444.189 203.479 443.214 202.027 442.069 200.662L281.372 9.15117Z" fill="#AA0099"/>
</svg>
